<?xml version="1.0" encoding="utf-8"?>
<!-- Generator: Adobe Illustrator 22.1.0, SVG Export Plug-In . SVG Version: 6.00 Build 0)  -->
<svg version="1.1" id="Слой_1" xmlns="http://www.w3.org/2000/svg" xmlns:xlink="http://www.w3.org/1999/xlink" x="0px" y="0px"
	 viewBox="0 0 360 90" style="enable-background:new 0 0 360 90;" xml:space="preserve">
<style type="text/css">
	.st0{fill:#FFFFFF;}
	.st1{fill:#08254D;}
	.st2{fill:url(#SVGID_1_);}
</style>
<g>
	<path class="st0" d="M22,44c-5.1,3-7.6,7.2-7.9,10.2l-0.1,0l0.1,0c0,0.2,0,0.5,0,0.7c0,0.3,0.2,0.6,0.4,0.8
		c0.3,0.2,0.6,0.2,0.9,0.1l0,0l1.4-0.5c-1.5,3-3.4,7.2-4.5,10.8c0,0.1,0,0.1-0.1,0.2c-0.1,0.4-0.2,0.8-0.3,1.1c0,0.1,0,0.1-0.1,0.2
		c-0.1,0.4-0.2,0.7-0.3,1.1c0,0.1,0,0.2-0.1,0.3c-0.1,0.3-0.1,0.5-0.1,0.7c0,0.1,0,0.2,0,0.3c0,0.1,0,0.1,0,0.2l0,0
		c0-0.1,0,0.4,0,0.7c0,0.6,0,1.1,0.2,1.5l0,0c0.2,0.7,0.5,1.3,1.1,1.6c0.6,0.3,1.1,0.4,1.5,0.4c0.3,0,0.6-0.1,0.8-0.1
		c1.3-0.4,1.8-1.7,1.9-1.8l1.3-2.9c0.3,0.4,0.7,0.6,1,0.8c1.9,0.9,3.6,0,4.4-1.4c0.2,0.2,0.4,0.4,0.7,0.6c0.7,0.5,1.5,0.6,2.4,0.4
		c0.7-0.1,1.3-0.5,1.8-1c0.2,0.3,0.6,0.6,0.9,0.9c0.1,0,0.1,0.1,0.2,0.1c1.6,0.8,3.3,0,4-0.8c0.1-0.1,0.2-0.3,0.7-1
		c0.1-0.2,0.2-0.3,0.4-0.6c0.3-0.4,0.6-0.8,0.8-1.2v0c0,0,0,0,0,0c0.1-0.1,0.2-0.3,0.3-0.4c0,0,0,0,0,0c0.1-0.1,0.2-0.2,0.2-0.3
		c0,0,0.1-0.1,0.1-0.1c0.1-0.1,0.1-0.2,0.2-0.2c0-0.1,0.1-0.1,0.1-0.2c0,0,0,0,0,0c0,0,0,0,0,0l0,0l-1.4-1.6l0,0
		c-0.5,0.7-1.4,2-2.1,3c-0.8,1.2-1,1.4-1,1.4c-0.2,0.2-0.9,0.6-1.6,0.3c-0.3-0.2-0.4-0.4-0.5-0.7c-0.1-0.3,0-0.6,0.1-0.9l1.8-2.9
		c0.3-0.5,0.1-1.1-0.3-1.4c-0.5-0.3-1.1-0.1-1.4,0.3l-2.8,4.7c-0.3,0.4-0.6,0.7-1.1,0.8c-0.3,0.1-0.6,0-0.8-0.1
		c-0.2-0.1-0.4-0.3-0.5-0.5c-0.2-0.3-0.2-0.7,0-1.1v0c0,0,0,0,0,0c0,0,0,0,0,0c0,0,0,0,0,0l1.8-3.5c0.3-0.5,0.1-1.1-0.4-1.4
		c-0.5-0.3-1.1-0.1-1.4,0.4l-1.8,3.5c0,0,0,0,0,0l-1.3,2.5c-0.2,0.4-0.8,1.1-1.8,0.6c-0.1-0.1-0.4-0.2-0.5-0.7
		c-0.1-0.4-0.1-0.9,0.1-1.3l2.6-5.5c0.2-0.5,0-1.1-0.5-1.3c-0.5-0.2-1.1,0-1.3,0.5l-2.5,5.4c0,0,0,0,0,0l-2.8,6.1
		c-0.1,0.2-0.4,0.6-0.7,0.7c-0.1,0-0.3,0.1-0.7-0.1c-0.1,0-0.3-0.3-0.2-1.2c0-0.2,0-0.5,0.1-0.8c0-0.1,0-0.2,0.1-0.3
		c0-0.2,0.1-0.4,0.1-0.5c0-0.2,0.1-0.3,0.1-0.5c0-0.2,0.1-0.3,0.1-0.5c0.1-0.2,0.1-0.4,0.2-0.6c0-0.1,0-0.1,0.1-0.2
		c0.2-0.6,0.4-1.1,0.6-1.7c0-0.1,0-0.1,0.1-0.2c0.1-0.3,0.2-0.6,0.3-0.9c0-0.1,0.1-0.2,0.1-0.3c0.2-0.4,0.3-0.9,0.5-1.3
		c0.1-0.3,0.2-0.6,0.4-0.9c0.1-0.2,0.2-0.4,0.3-0.6c0.2-0.4,0.4-0.8,0.5-1.3c0-0.1,0.1-0.2,0.1-0.2l1-2.2c0.1-0.1,0.1-0.3,0.2-0.4
		l0,0l0.6-1.2c0,0,0.1-0.1,0.1-0.1l0-0.1c0.1-0.2,0.2-0.5,0.3-0.7l0.2-0.4c0,0,0,0,0-0.1c0.2-0.3,0.3-0.6,0.5-1
		c0.3-0.5,0.4-0.8,0.4-0.8c0.2-0.4,0.1-0.9-0.2-1.2c-0.4-0.3-0.9-0.3-1.3,0l-1.4,1.1l-0.8,0.3c0.7-2.4,2.8-5.4,6.7-7.7
		c1.7-1,15.2-5.7,30.2-10.7l4.6,12.9l-5,0.9l0.4,0.2c0,0,0.1,0,0.1,0.1c0.5,0.3,0.9,0.9,1.2,1.5l4.1-0.7l0,0l-5.9-16.7
		C38.2,37.9,23.9,42.9,22,44z"/>
	<g>
		<path class="st1" d="M135.2,81.4l-4.5-14.8h-27.3l-4.5,14.8c-0.5,1.8-2.2,3-4,3h-8c-2.9,0-5-2.9-4-5.6L106.3,12
			c0.6-1.7,2.2-2.8,4-2.8h13.4c1.8,0,3.4,1.1,4,2.8l23.6,66.8c1,2.8-1.1,5.6-4,5.6h-8C137.4,84.3,135.7,83.1,135.2,81.4z
			 M126.9,53.2c-5-16.2-7.8-25.3-8.5-27.4c-0.6-2.1-1.1-3.8-1.4-5c-1.1,4.4-4.4,15.2-9.7,32.4H126.9z"/>
		<path class="st1" d="M160.8,12.3c0-5.1,2.8-7.6,8.5-7.6c5.7,0,8.5,2.5,8.5,7.6c0,2.4-0.7,4.3-2.1,5.7c-1.4,1.3-3.5,2-6.4,2
			C163.6,19.9,160.8,17.4,160.8,12.3z M172.8,84.3h-7.2c-2.3,0-4.2-1.9-4.2-4.2V31.3c0-2.3,1.9-4.2,4.2-4.2h7.2
			c2.3,0,4.2,1.9,4.2,4.2v48.8C177,82.5,175.2,84.3,172.8,84.3z"/>
		<path class="st1" d="M237.2,84.3c-1.9,0-3.5-1.2-4.1-3.1l-1.2-4.3h-0.8c-1.7,2.7-4,4.7-7.1,6.2c-3.1,1.5-6.6,2.2-10.5,2.2
			c-6.7,0-11.8-1.8-15.2-5.4c-3.4-3.6-5.1-8.8-5.1-15.5V31.3c0-2.3,1.9-4.2,4.2-4.2h7.2c2.3,0,4.2,1.9,4.2,4.2v29.2
			c0,4.1,0.7,7.2,2.2,9.3c1.5,2.1,3.8,3.1,7,3.1c4.4,0,7.5-1.5,9.5-4.4s2.9-7.8,2.9-14.5V31.3c0-2.3,1.9-4.2,4.2-4.2h7.2
			c2.3,0,4.2,1.9,4.2,4.2v48.8c0,2.3-1.9,4.2-4.2,4.2H237.2z"/>
		<path class="st1" d="M286.5,72.9c1.4,0,3-0.2,4.8-0.5c2.6-0.5,5.1,1.5,5.1,4.1v3.3c0,1.9-1.2,3.5-3,4.1c-3.3,1-7.1,1.5-11.3,1.5
			c-6.3,0-10.8-1.6-13.7-4.7c-2.9-3.2-4.3-7.9-4.3-14.2V38.8h-3.3c-2.3,0-4.2-1.9-4.2-4.2v0c0-1.5,0.8-2.8,2-3.6l5.3-3.2
			c0.8-0.5,1.4-1.2,1.8-2.1l3-8c0.6-1.7,2.2-2.8,4-2.8h2.8c2.3,0,4.2,1.9,4.2,4.2v8h11.8c2.3,0,4.2,1.9,4.2,4.2v3.3
			c0,2.3-1.9,4.2-4.2,4.2h-11.8v27.6c0,2.2,0.6,3.9,1.9,4.9C282.8,72.4,284.5,72.9,286.5,72.9z"/>
		<path class="st1" d="M360,55.6c0,9.3-2.5,16.6-7.4,21.9s-11.8,7.9-20.5,7.9c-5.5,0-10.3-1.2-14.6-3.6c-4.2-2.4-7.4-5.9-9.7-10.4
			c-2.3-4.5-3.4-9.8-3.4-15.8c0-9.4,2.4-16.6,7.3-21.8c4.9-5.2,11.7-7.8,20.6-7.8c5.5,0,10.3,1.2,14.6,3.6c4.2,2.4,7.4,5.8,9.7,10.3
			C358.9,44.4,360,49.6,360,55.6z M320.4,55.6c0,5.7,0.9,10,2.8,12.9c1.9,2.9,4.9,4.4,9.1,4.4c4.2,0,7.2-1.4,9-4.3
			c1.8-2.9,2.7-7.2,2.7-12.9c0-5.7-0.9-9.9-2.8-12.8c-1.8-2.8-4.9-4.3-9.1-4.3c-4.2,0-7.2,1.4-9,4.2
			C321.3,45.6,320.4,49.9,320.4,55.6z"/>
	</g>
	<path class="st0" d="M40.5,63.2c0,0.1,0,0.3,0,0.4c0,0.1,0,0.1,0,0.2c0,0.2,0,0.3,0,0.5c-0.1,0.9-0.3,1.5-0.6,1.7
		c-0.9,0.6-2.6,0.7-4.6,0.4c0,0,0,0,0,0c0.1-0.1,0.2-0.3,0.3-0.4c0,0,0,0,0,0c0.1-0.1,0.2-0.2,0.2-0.3c0,0,0.1-0.1,0.1-0.1
		c0.1-0.1,0.1-0.2,0.2-0.2c0-0.1,0.1-0.1,0.1-0.2c0,0,0,0,0,0c0.2-0.3,0.3-0.5,0.5-0.7c0,0,0,0,0,0l0.2-0.3c0,0,0,0,0,0c0,0,0,0,0,0
		c0-0.1,0.1-0.1,0.1-0.2c0,0,0-0.1,0.1-0.1c0-0.1,0-0.1,0-0.2c0,0,0-0.1,0-0.1c0-0.1,0-0.2,0-0.2c0,0,0,0,0-0.1
		c0-0.1-0.1-0.2-0.2-0.3l-2.2-2.9c0,0-0.1-0.1-0.1-0.1L31.9,57c-0.2-0.2-0.3-0.5-0.3-0.8c0-0.3,0.1-0.6,0.3-0.8v0
		c0.1-0.1,0.2-0.2,0.3-0.2c0,0,0.1,0,0.1,0c0.1,0,0.2,0,0.2,0c0.1,0,0.1,0,0.2,0c0.1,0,0.2,0,0.2,0.1c0,0,0.1,0,0.1,0
		c0.1,0.1,0.2,0.1,0.3,0.2c0,0,0,0,0,0c0,0,0.1,0.1,0.1,0.1l5.9,4.9c0,0,0,0,0,0l0.7,0.6c0,0,0,0.1,0.1,0.1c0,0,0,0,0,0
		c0,0.1,0.1,0.3,0.1,0.5c0,0.1,0,0.1,0,0.2c0,0.2,0,0.5,0.1,0.7c0,0.1,0,0.2,0,0.3C40.5,63,40.5,63.1,40.5,63.2z M40.9,59l0.7,0.6
		c0,0,0.1,0.1,0.1,0.1c0.2,0.2,0.4,0.5,0.5,0.8c0,0,0,0.1,0,0.1c0.1,0.3,0.2,0.7,0.2,1.1c0,0,0,0,0,0c0,0.2,0,0.5,0.1,0.9
		c0,0.2,0,0.3,0,0.5c0,0,0,0.1,0,0.1c0.8-0.2,1.4-0.6,1.6-1.1c0.3-0.8,0.4-1.4,0.3-2.6c0,0,0-0.1,0-0.1c0-0.2,0-0.3-0.1-0.5
		c0,0,0-0.1,0-0.1c0-0.2-0.1-0.4-0.1-0.6c0-0.1,0-0.1,0-0.2c0,0,0-0.1,0-0.1c0,0,0-0.1,0-0.1c0,0,0,0,0,0l-1-0.7c0,0,0,0,0,0
		l-6.9-4.8l0,0l-1.2-0.9c0,0-0.1,0-0.1-0.1c-0.5-0.4-1.2-0.4-1.6,0.1C33,51.5,32.9,51.7,33,52c0,0.3,0.1,0.6,0.4,0.7l0.9,0.8
		c0,0,0,0,0.1,0.1c0.2,0.1,0.5,0.3,0.7,0.5c0,0,0,0,0,0L40.9,59C40.9,58.9,40.9,59,40.9,59z M52.3,52.8c0.2-0.4,0.3-1,0.2-1.5
		c-0.1-0.3-0.2-0.4-0.3-0.5l-6-2.6c0,0-0.1,0-0.1-0.1C46,48.1,45.9,48,45.7,48c0,0,0,0,0,0c-0.1,0-0.3,0-0.4,0
		c-0.3,0.1-0.5,0.2-0.7,0.5c-0.2,0.2-0.2,0.5-0.1,0.8c0.1,0.3,0.3,0.5,0.5,0.7l0.6,0.3c0,0,0,0,0,0l5.2,3.1
		C51.2,53.8,52,53.3,52.3,52.8z M45.4,56.1C45.4,56.1,45.4,56.1,45.4,56.1C45.4,56.1,45.4,56.1,45.4,56.1c0.1,0.1,0.1,0.1,0.2,0.2
		c0,0,0.1,0.1,0.1,0.1l0.1,0.1c0,0,0.1,0.1,0.1,0.1l0.1,0.1c0,0,0,0,0,0c0,0,0,0,0,0c0.1,0.2,0.2,0.4,0.3,0.6c0,0,0,0,0,0.1
		c0,0,0,0.1,0,0.1c0,0.1,0,0.1,0,0.2c0,0.1,0,0.1,0,0.2c0,0.2,0.1,0.4,0.1,0.5c0.7-0.2,1.6-0.6,2.2-1.7c0,0,0-0.1,0.1-0.1
		c0.3-0.3,0.4-0.9,0.3-1.5c0-0.3-0.1-0.5-0.2-0.6L39.1,49c0,0-0.1,0-0.1-0.1c-0.5-0.4-1.2-0.3-1.6,0.2c-0.1,0.1-0.1,0.2-0.2,0.3
		c0,0,0,0.1,0,0.1c0,0.1,0,0.2,0,0.2c0,0,0,0.1,0,0.1c0,0.1,0,0.1,0.1,0.2c0,0,0.1,0.1,0.1,0.1c0,0.1,0.1,0.1,0.1,0.2l0.6,0.4
		l6.2,4.3c0,0,0.1,0,0.1,0.1L45.4,56.1C45.3,56,45.4,56,45.4,56.1z M14.5,56.2l-7.1,2.2l-0.1,0L1.8,74.3l0,0l9.4-3.9
		c0-0.1,0-0.1,0-0.2c0-0.1,0-0.2,0-0.3c0-0.2,0.1-0.5,0.1-0.7c0-0.1,0-0.2,0.1-0.3c0.1-0.4,0.2-0.7,0.3-1.1c0-0.1,0-0.1,0.1-0.2
		c0.1-0.4,0.2-0.7,0.3-1.1c0-0.1,0-0.1,0.1-0.2c1.2-3.6,3.1-7.8,4.5-10.8L14.5,56.2z"/>
	<linearGradient id="SVGID_1_" gradientUnits="userSpaceOnUse" x1="5.5313" y1="87.3988" x2="63.3356" y2="29.5945">
		<stop  offset="0" style="stop-color:#B3243B"/>
		<stop  offset="1" style="stop-color:#D9415A"/>
	</linearGradient>
	<path class="st2" d="M8.2,56l15.5-44c0.6-1.7,2.2-2.8,4-2.8h13.4c1.8,0,3.4,1.1,4,2.8l7.5,21.1C38.2,37.9,23.9,42.9,22,44
		c-5.1,3-7.6,7.2-7.9,10.2L8.2,56z M58.5,49.8l-4.1,0.7c0,0.1,0.1,0.2,0.1,0.3c0.3,1,0.1,2.2-0.4,3c-0.6,1-1.8,1.7-3,1.7
		c0,0-0.1,0-0.1,0c0,0.8-0.3,1.7-0.7,2.3c-1.1,1.8-2.6,2.5-3.8,2.7c0,0.8-0.2,1.5-0.5,2.3c-0.6,1.5-2.4,2.2-3.7,2.4
		c-0.2,1.1-0.7,1.9-1.4,2.4c-1,0.7-2.3,0.9-3.6,0.9c-1.2,0-2.4-0.2-3.3-0.4c-0.5,0.7-0.7,0.9-0.7,1c-0.7,0.8-2.4,1.6-4,0.8
		c-0.1,0-0.1-0.1-0.2-0.1c-0.4-0.2-0.7-0.5-0.9-0.9c-0.5,0.5-1.1,0.9-1.8,1c-0.8,0.2-1.7,0-2.4-0.4c-0.3-0.2-0.5-0.4-0.7-0.6
		c-0.8,1.4-2.5,2.3-4.4,1.4c-0.3-0.1-0.7-0.4-1-0.8l-1.3,2.9c0,0.1-0.6,1.4-1.9,1.8c-0.2,0.1-0.5,0.1-0.8,0.1c-0.4,0-1-0.1-1.5-0.4
		c-0.5-0.3-0.9-0.9-1.1-1.6L0.9,76.8l0,0l-0.7,1.9c-1,2.8,1.1,5.6,4,5.6h60.4c2.9,0,5-2.9,4-5.6L58.5,49.8z"/>
	<path class="st1" d="M53.2,49c0,0-0.1,0-0.1-0.1l-0.4-0.2l5-0.9L53.2,35c-15,5-28.5,9.7-30.2,10.7c-3.9,2.3-6.1,5.3-6.7,7.7
		l0.8-0.3l1.4-1.1c0.4-0.3,0.9-0.3,1.3,0c0.4,0.3,0.5,0.8,0.2,1.2c0,0-0.2,0.3-0.4,0.8c-0.2,0.3-0.3,0.6-0.5,1c0,0,0,0.1,0,0.1
		l-0.2,0.4c-0.1,0.2-0.2,0.5-0.3,0.7l0,0.1c0,0-0.1,0.1-0.1,0.1l-0.6,1.2l0,0c-0.1,0.1-0.1,0.3-0.2,0.4l-1,2.2
		c0,0.1-0.1,0.2-0.1,0.2c-0.2,0.4-0.4,0.9-0.5,1.3c-0.1,0.2-0.2,0.4-0.3,0.6c-0.1,0.3-0.2,0.6-0.4,0.9c-0.2,0.4-0.3,0.9-0.5,1.3
		c0,0.1-0.1,0.2-0.1,0.3c-0.1,0.3-0.2,0.6-0.3,0.9c0,0.1,0,0.1-0.1,0.2c-0.2,0.6-0.4,1.2-0.6,1.7c0,0.1,0,0.1-0.1,0.2
		c-0.1,0.2-0.1,0.4-0.2,0.6c0,0.2-0.1,0.3-0.1,0.5c0,0.2-0.1,0.3-0.1,0.5c0,0.2-0.1,0.4-0.1,0.5c0,0.1,0,0.2-0.1,0.3
		c0,0.3-0.1,0.5-0.1,0.8c0,0.9,0.2,1.2,0.2,1.2c0.4,0.2,0.6,0.2,0.7,0.1c0.3-0.1,0.6-0.5,0.7-0.7l2.8-6.1c0,0,0,0,0,0l2.5-5.4
		c0.2-0.5,0.8-0.7,1.3-0.5c0.5,0.2,0.7,0.8,0.5,1.3l-2.6,5.5c-0.2,0.4-0.2,0.9-0.1,1.3c0.2,0.5,0.4,0.6,0.5,0.7
		c1,0.5,1.6-0.2,1.8-0.6l1.3-2.5c0,0,0,0,0,0l1.8-3.5c0.3-0.5,0.9-0.7,1.4-0.4c0.5,0.3,0.7,0.9,0.4,1.4l-1.8,3.5c0,0,0,0,0,0
		c0,0,0,0,0,0c0,0,0,0,0,0v0c-0.2,0.4-0.2,0.8,0,1.1c0.1,0.2,0.3,0.4,0.5,0.5c0.3,0.2,0.5,0.2,0.8,0.1c0.4-0.1,0.8-0.4,1.1-0.8
		l2.8-4.7c0.3-0.5,0.9-0.6,1.4-0.3c0.5,0.3,0.6,0.9,0.3,1.4l-1.8,2.9c-0.2,0.3-0.2,0.6-0.1,0.9c0.1,0.3,0.2,0.5,0.5,0.7
		c0.7,0.3,1.4-0.1,1.6-0.3c0,0,0.2-0.3,1-1.4c0.7-1,1.6-2.3,2.1-3l0,0l1.4,1.6l0,0c0.4-0.6,0.7-1.1,0.7-1.1c0.2-0.4,0.2-0.8,0-1.2
		l-2.2-2.9c0,0-0.1-0.1-0.1-0.1L31.9,57c-0.2-0.2-0.3-0.5-0.3-0.8c0-0.3,0.1-0.6,0.3-0.8c0.4-0.4,1.2-0.4,1.6,0c0,0,0,0,0,0
		c0,0,0.1,0.1,0.1,0.1l6.6,5.5c0,0,0,0.1,0.1,0.1c0,0,0,0,0,0c0,0.1,0.1,0.3,0.1,0.5c0,0.1,0,0.1,0,0.2c0,0,0,0,0,0
		c0,0.2,0,0.5,0.1,0.7c0,0.1,0,0.2,0,0.3c0,0.1,0,0.2,0,0.3c0,0.1,0,0.3,0,0.4c0,0,0,0.1,0,0.1c0,0.2,0,0.4,0,0.6
		c-0.1,0.9-0.3,1.5-0.6,1.7c-0.9,0.6-2.6,0.7-4.6,0.4l0,0c-0.3,0.4-0.6,0.8-0.8,1.2c-0.2,0.2-0.3,0.4-0.4,0.6
		c0.9,0.2,2.1,0.4,3.3,0.4c1.3,0,2.6-0.2,3.6-0.9c0.7-0.5,1.1-1.3,1.4-2.4c1.3-0.3,3.1-0.9,3.7-2.4c0.3-0.8,0.5-1.5,0.5-2.3
		c1.1-0.2,2.6-0.9,3.8-2.7c0.4-0.6,0.7-1.4,0.7-2.3c0,0,0.1,0,0.1,0c1.2,0,2.4-0.7,3-1.7c0.5-0.8,0.7-2,0.4-3
		C54.3,50,53.8,49.4,53.2,49z M44.2,62.1c-0.2,0.5-0.9,0.9-1.6,1.1c0,0,0-0.1,0-0.1c0-0.1,0-0.3,0-0.4c0-0.3,0-0.6-0.1-0.9
		c0-0.4,0-0.8-0.2-1.2c0,0,0,0,0-0.1c-0.1-0.3-0.3-0.6-0.5-0.8c0,0-0.1-0.1-0.1-0.1L40.9,59c0,0,0,0-0.1,0L35,54.1c0,0,0,0,0,0
		c-0.2-0.2-0.4-0.4-0.7-0.5c0,0,0,0-0.1-0.1l-0.9-0.8C33.1,52.6,33,52.3,33,52c0-0.3,0.1-0.6,0.3-0.8c0,0,0,0,0,0
		c0.4-0.5,1.1-0.5,1.6-0.1c0,0,0.1,0.1,0.1,0.1l1.2,0.9c0,0,0,0,0,0l0,0l6.9,4.8c0,0,0,0,0,0l1,0.7c0,0,0,0,0,0c0,0,0,0.1,0,0.1
		c0,0,0,0.1,0,0.1c0,0.1,0,0.1,0,0.2c0,0.2,0.1,0.4,0.1,0.6c0,0,0,0.1,0,0.1c0,0.2,0.1,0.4,0.1,0.5c0,0,0,0.1,0,0.1
		C44.6,60.6,44.5,61.3,44.2,62.1z M48.6,56.7C48.6,56.7,48.6,56.7,48.6,56.7c-0.7,1.2-1.6,1.6-2.3,1.8c0-0.2-0.1-0.4-0.1-0.7
		c0,0,0,0,0,0c0,0,0,0,0,0c0-0.1,0-0.1,0-0.2c0,0,0-0.1,0-0.1c0,0,0,0,0-0.1c-0.1-0.2-0.2-0.5-0.3-0.7c0,0,0,0,0,0l-0.1-0.1
		c0,0-0.1-0.1-0.1-0.1l-0.1-0.1c0,0-0.1-0.1-0.1-0.1c-0.1-0.1-0.1-0.1-0.2-0.2c0,0,0,0,0,0c0,0,0,0,0,0c0,0-0.1-0.1-0.1-0.1
		l-0.9-0.6c0,0-0.1,0-0.1-0.1l-6.9-4.8l0,0c-0.3-0.4-0.3-0.9,0-1.3c0,0,0,0,0,0c0.4-0.5,1.1-0.6,1.6-0.2c0,0,0.1,0,0.1,0.1l9.7,5.6
		c0.1,0.1,0.2,0.3,0.2,0.6C49,55.7,48.9,56.3,48.6,56.7z M52.3,52.8c-0.3,0.5-1.1,1-1.6,0.7L45,50c-0.3-0.2-0.4-0.4-0.5-0.7
		c-0.1-0.3,0-0.6,0.1-0.8c0,0,0,0,0,0c0.2-0.3,0.6-0.5,1-0.5c0.2,0,0.4,0.1,0.6,0.2c0,0,0.1,0,0.1,0.1l6,2.6
		c0.1,0.1,0.2,0.3,0.3,0.5C52.6,51.8,52.6,52.4,52.3,52.8z"/>
	<g>
		<path class="st1" d="M14.4,55.8C14.2,55.6,14,55.3,14,55c0-0.2,0-0.5,0-0.7L8.2,56l-0.9,2.4l7.2-2.2l0.8-0.3l-0.1,0
			C15,56,14.7,56,14.4,55.8z"/>
		<path class="st1" d="M11.2,70.3l-9.4,3.9l-0.9,2.6l10.4-4.4c-0.1-0.4-0.2-0.9-0.2-1.5C11.2,70.7,11.2,70.3,11.2,70.3z"/>
	</g>
</g>
</svg>
